<?xml version="1.0" encoding="UTF-8" standalone="no"?>
<!-- Created with Inkscape (http://www.inkscape.org/) -->

<svg
   width="108mm"
   height="20mm"
   viewBox="0 0 135.00001 25"
   version="1.1"
   id="svg1"
   inkscape:version="1.4.2 (7335b4f457, 2025-06-11)"
   sodipodi:docname="unverified-to-verified.svg"
   xmlns:inkscape="http://www.inkscape.org/namespaces/inkscape"
   xmlns:sodipodi="http://sodipodi.sourceforge.net/DTD/sodipodi-0.dtd"
   xmlns:xlink="http://www.w3.org/1999/xlink"
   xmlns="http://www.w3.org/2000/svg"
   xmlns:svg="http://www.w3.org/2000/svg">
  <sodipodi:namedview
     id="namedview1"
     pagecolor="#505050"
     bordercolor="#ffffff"
     borderopacity="1"
     inkscape:showpageshadow="0"
     inkscape:pageopacity="0"
     inkscape:pagecheckerboard="1"
     inkscape:deskcolor="#505050"
     inkscape:document-units="mm"
     inkscape:zoom="1.654314"
     inkscape:cx="424.94956"
     inkscape:cy="175.60149"
     inkscape:window-width="3774"
     inkscape:window-height="2075"
     inkscape:window-x="66"
     inkscape:window-y="46"
     inkscape:window-maximized="1"
     inkscape:current-layer="g1"
     showgrid="false" />
  <defs
     id="defs1">
    <linearGradient
       id="linearGradient1"
       inkscape:collect="always">
      <stop
         style="stop-color:#c211e5;stop-opacity:1;"
         offset="0"
         id="stop2" />
      <stop
         style="stop-color:#1aacda;stop-opacity:1;"
         offset="1"
         id="stop1" />
    </linearGradient>
    <linearGradient
       inkscape:collect="always"
       xlink:href="#linearGradient1"
       id="linearGradient2"
       x1="57.167238"
       y1="110.44749"
       x2="71.636428"
       y2="110.44749"
       gradientUnits="userSpaceOnUse" />
  </defs>
  <g
     inkscape:label="Layer 1"
     inkscape:groupmode="layer"
     id="layer1"
     transform="translate(7.3544154,-98.5)">
    <g
       id="g1"
       transform="translate(1.8256315,0.26785802)">
      <rect
         style="fill:none;stroke:#3fb84f;stroke-width:0.999998;stroke-dasharray:none;stroke-opacity:1;paint-order:stroke fill markers"
         id="rect8"
         width="47.448513"
         height="16.621359"
         x="76.045815"
         y="102.42146"
         ry="8.3106794" />
      <path
         style="font-size:9.9736px;font-family:'Noto Sans';-inkscape-font-specification:'Noto Sans';text-align:center;text-anchor:middle;fill:#00d455;paint-order:stroke fill markers"
         d="m 87.772738,107.3369 -2.543268,7.12115 h -0.897624 l -2.543268,-7.12115 h 0.937519 l 1.605749,4.56791 q 0.159578,0.43884 0.269287,0.82781 0.10971,0.379 0.179525,0.72807 0.06981,-0.34907 0.179525,-0.73804 0.10971,-0.38897 0.269287,-0.83779 l 1.595776,-4.54796 z m 2.7128,1.67557 q 0.688178,0 1.176885,0.29921 0.49868,0.2992 0.757993,0.84775 0.269288,0.53858 0.269288,1.26665 v 0.5286 h -3.660312 q 0.01995,0.9076 0.458786,1.38633 0.448812,0.46876 1.2467,0.46876 0.508654,0 0.897624,-0.0898 0.398944,-0.0997 0.817835,-0.27926 v 0.76796 q -0.408917,0.17953 -0.807861,0.25932 -0.398944,0.0898 -0.947492,0.0898 -0.757994,0 -1.346437,-0.30918 -0.578468,-0.30918 -0.907597,-0.91757 -0.319155,-0.61837 -0.319155,-1.50602 0,-0.87767 0.289234,-1.50601 0.299208,-0.62834 0.827809,-0.96744 0.538574,-0.3391 1.2467,-0.3391 z m -0.01,0.7181 q -0.628336,0 -0.99736,0.40891 -0.359049,0.39895 -0.428865,1.11705 h 2.722793 q -0.01,-0.67821 -0.319155,-1.0971 -0.309181,-0.42886 -0.977413,-0.42886 z m 6.063941,-0.7181 q 0.149604,0 0.319155,0.0199 0.179525,0.01 0.309182,0.0399 l -0.10971,0.80786 q -0.129656,-0.0299 -0.289234,-0.0499 -0.149604,-0.0199 -0.289234,-0.0199 -0.408918,0 -0.767968,0.22939 -0.359049,0.21942 -0.578468,0.62834 -0.209446,0.39894 -0.209446,0.93751 v 2.85245 h -0.877677 v -5.34585 h 0.718099 l 0.09974,0.97742 h 0.0399 q 0.259313,-0.43884 0.668231,-0.758 0.408918,-0.31915 0.967439,-0.31915 z m 2.074492,-1.90496 q 0.199472,0 0.349076,0.13963 0.159577,0.12966 0.159577,0.41889 0,0.27926 -0.159577,0.41889 -0.149604,0.13963 -0.349076,0.13963 -0.219419,0 -0.369023,-0.13963 -0.149604,-0.13963 -0.149604,-0.41889 0,-0.28923 0.149604,-0.41889 0.149604,-0.13963 0.369023,-0.13963 z m 0.428865,2.00469 v 5.34585 h -0.877677 v -5.34585 z m 4.158984,0.67821 h -1.34644 v 4.66764 h -0.87768 v -4.66764 h -0.93751 v -0.40892 l 0.93751,-0.29921 v -0.30918 q 0,-1.03725 0.45879,-1.48607 0.45879,-0.45878 1.27662,-0.45878 0.31916,0 0.57847,0.0598 0.26929,0.0499 0.45879,0.11968 l -0.2294,0.68818 q -0.15958,-0.0499 -0.36902,-0.0997 -0.20945,-0.0499 -0.42887,-0.0499 -0.43883,0 -0.65825,0.29921 -0.20945,0.28923 -0.20945,0.91757 v 0.34907 h 1.34644 z m 1.41625,-2.6829 q 0.19947,0 0.34907,0.13963 0.15958,0.12966 0.15958,0.41889 0,0.27926 -0.15958,0.41889 -0.1496,0.13963 -0.34907,0.13963 -0.21942,0 -0.36902,-0.13963 -0.14961,-0.13963 -0.14961,-0.41889 0,-0.28923 0.14961,-0.41889 0.1496,-0.13963 0.36902,-0.13963 z m 0.42886,2.00469 v 5.34585 h -0.87767 v -5.34585 z m 3.76004,-0.0997 q 0.68818,0 1.17689,0.29921 0.49868,0.2992 0.75799,0.84775 0.26929,0.53858 0.26929,1.26665 v 0.5286 h -3.66031 q 0.0199,0.9076 0.45878,1.38633 0.44881,0.46876 1.2467,0.46876 0.50866,0 0.89763,-0.0898 0.39894,-0.0997 0.81783,-0.27926 v 0.76796 q -0.40892,0.17953 -0.80786,0.25932 -0.39894,0.0898 -0.94749,0.0898 -0.758,0 -1.34644,-0.30918 -0.57847,-0.30918 -0.9076,-0.91757 -0.31915,-0.61837 -0.31915,-1.50602 0,-0.87767 0.28923,-1.50601 0.29921,-0.62834 0.82781,-0.96744 0.53858,-0.3391 1.2467,-0.3391 z m -0.01,0.7181 q -0.62834,0 -0.99736,0.40891 -0.35905,0.39895 -0.42887,1.11705 h 2.7228 q -0.01,-0.67821 -0.31916,-1.0971 -0.30918,-0.42886 -0.97741,-0.42886 z m 5.46552,4.82722 q -0.99736,0 -1.59577,-0.68818 -0.59842,-0.69815 -0.59842,-2.07451 0,-1.37635 0.59842,-2.07451 0.60839,-0.70812 1.60575,-0.70812 0.61836,0 1.00733,0.22939 0.39895,0.22939 0.64829,0.55852 h 0.0598 q -0.01,-0.12965 -0.0399,-0.37899 -0.0199,-0.25932 -0.0199,-0.40892 v -2.13435 h 0.87767 v 7.57993 h -0.70812 l -0.12966,-0.7181 h -0.0399 q -0.23937,0.33911 -0.63832,0.57847 -0.39894,0.23937 -1.02728,0.23937 z m 0.13963,-0.72807 q 0.84776,0 1.18686,-0.45879 0.34908,-0.46876 0.34908,-1.40628 v -0.15957 q 0,-0.99736 -0.32913,-1.52596 -0.32913,-0.53858 -1.21678,-0.53858 -0.70813,0 -1.06717,0.5685 -0.34908,0.55852 -0.34908,1.50601 0,0.95747 0.34908,1.48607 0.35904,0.5286 1.07714,0.5286 z"
         id="text8"
         aria-label="Verified" />
      <rect
         style="fill:none;fill-opacity:1;stroke:#9a6701;stroke-width:0.999998;stroke-dasharray:none;stroke-opacity:1;paint-order:stroke fill markers"
         id="rect9"
         width="59.008698"
         height="16.621359"
         x="-6.8544164"
         y="102.42146"
         ry="8.3106794" />
      <path
         style="font-size:9.9736px;font-family:'Noto Sans';-inkscape-font-specification:'Noto Sans';text-align:center;text-anchor:middle;fill:#9a6701;paint-order:stroke fill markers"
         d="m 4.8847151,112.23227 q 0,0.73805 -0.299208,1.33647 -0.299208,0.58844 -0.9175713,0.93751 -0.6083896,0.33911 -1.5558816,0.33911 -1.32648888,0 -2.02464091,-0.7181 -0.68817843,-0.72808 -0.68817843,-1.91493 v -4.58786 H 0.2968589 v 4.61778 q 0,0.8677 0.45878562,1.34643 0.46875918,0.47874 1.40627768,0.47874 0.9674392,0 1.396304,-0.50866 0.4388384,-0.51862 0.4388384,-1.32649 v -4.6078 h 0.8876505 z m 4.3285325,-2.93224 q 0.9574654,0 1.4461724,0.46876 0.488706,0.45879 0.488706,1.49604 v 3.48079 h -0.867703 v -3.42094 q 0,-1.2866 -1.1968322,-1.2866 -0.8876504,0 -1.2267528,0.49868 -0.3391025,0.49868 -0.3391025,1.4362 v 2.77266 H 6.6400587 v -5.34585 h 0.7081256 l 0.1296568,0.72807 h 0.049868 q 0.2593137,-0.41889 0.7180993,-0.61836 0.4587856,-0.20945 0.9674392,-0.20945 z m 4.7673624,5.44559 -2.024641,-5.34585 h 0.937518 l 1.136991,3.15166 q 0.07979,0.21942 0.169551,0.48871 0.08976,0.26928 0.159578,0.51862 0.06982,0.23937 0.09974,0.40892 h 0.03989 q 0.03989,-0.16955 0.10971,-0.41889 0.07979,-0.24934 0.169551,-0.51863 0.09974,-0.26929 0.169551,-0.47873 l 1.13699,-3.15166 h 0.937519 l -2.034615,5.34585 z m 5.954233,-5.44559 q 0.688178,0 1.176885,0.29921 0.49868,0.29921 0.757993,0.84776 0.269288,0.53857 0.269288,1.26665 v 0.5286 h -3.660312 q 0.01995,0.90759 0.458786,1.38633 0.448812,0.46876 1.2467,0.46876 0.508654,0 0.897624,-0.0898 0.398944,-0.0997 0.817835,-0.27926 v 0.76797 q -0.408917,0.17953 -0.807861,0.25931 -0.398944,0.0898 -0.947492,0.0898 -0.757994,0 -1.346437,-0.30918 -0.578468,-0.30919 -0.907597,-0.91758 -0.319155,-0.61836 -0.319155,-1.50601 0,-0.87768 0.289234,-1.50601 0.299208,-0.62834 0.827809,-0.96744 0.538574,-0.33911 1.2467,-0.33911 z m -0.01,0.7181 q -0.628337,0 -0.99736,0.40892 -0.359049,0.39895 -0.428865,1.11705 h 2.722793 q -0.01,-0.67821 -0.319155,-1.0971 -0.309181,-0.42887 -0.977413,-0.42887 z m 6.063942,-0.7181 q 0.149604,0 0.319155,0.0199 0.179525,0.01 0.309182,0.0399 l -0.10971,0.80786 q -0.129657,-0.0299 -0.289234,-0.0499 -0.149604,-0.0199 -0.289235,-0.0199 -0.408917,0 -0.767967,0.2294 -0.35905,0.21941 -0.578469,0.62833 -0.209446,0.39895 -0.209446,0.93752 v 2.85245 h -0.877676 v -5.34585 h 0.718099 l 0.09974,0.97741 h 0.03989 q 0.259314,-0.43883 0.668231,-0.75799 Q 25.430263,109.3 25.988785,109.3 Z m 2.074491,-1.90495 q 0.199472,0 0.349076,0.13963 0.159578,0.12965 0.159578,0.41889 0,0.27926 -0.159578,0.41889 -0.149604,0.13963 -0.349076,0.13963 -0.219419,0 -0.369023,-0.13963 -0.149604,-0.13963 -0.149604,-0.41889 0,-0.28924 0.149604,-0.41889 0.149604,-0.13963 0.369023,-0.13963 z m 0.428865,2.00469 v 5.34585 H 27.61449 v -5.34585 z m 4.158986,0.67821 h -1.346436 v 4.66764 H 30.42704 v -4.66764 h -0.937519 v -0.40892 l 0.937519,-0.29921 v -0.30918 q 0,-1.03726 0.458785,-1.48607 0.458786,-0.45878 1.276621,-0.45878 0.319155,0 0.578469,0.0598 0.269287,0.0499 0.458786,0.11968 l -0.229393,0.68818 q -0.159578,-0.0499 -0.369023,-0.0997 -0.209446,-0.0499 -0.428865,-0.0499 -0.438839,0 -0.658258,0.2992 -0.209445,0.28924 -0.209445,0.91757 v 0.34908 h 1.346436 z m 1.416251,-2.6829 q 0.199472,0 0.349076,0.13963 0.159577,0.12965 0.159577,0.41889 0,0.27926 -0.159577,0.41889 -0.149604,0.13963 -0.349076,0.13963 -0.219419,0 -0.369023,-0.13963 -0.149604,-0.13963 -0.149604,-0.41889 0,-0.28924 0.149604,-0.41889 0.149604,-0.13963 0.369023,-0.13963 z m 0.428865,2.00469 v 5.34585 h -0.877677 v -5.34585 z m 3.76004,-0.0997 q 0.688179,0 1.176885,0.29921 0.49868,0.29921 0.757994,0.84776 0.269287,0.53857 0.269287,1.26665 v 0.5286 h -3.660311 q 0.01995,0.90759 0.458785,1.38633 0.448812,0.46876 1.2467,0.46876 0.508654,0 0.897624,-0.0898 0.398944,-0.0997 0.817836,-0.27926 v 0.76797 q -0.408918,0.17953 -0.807862,0.25931 -0.398944,0.0898 -0.947492,0.0898 -0.757994,0 -1.346436,-0.30918 -0.578469,-0.30919 -0.907598,-0.91758 -0.319155,-0.61836 -0.319155,-1.50601 0,-0.87768 0.289234,-1.50601 0.299208,-0.62834 0.827809,-0.96744 0.538575,-0.33911 1.2467,-0.33911 z m -0.01,0.7181 q -0.628337,0 -0.99736,0.40892 -0.35905,0.39895 -0.428865,1.11705 h 2.722793 q -0.01,-0.67821 -0.319155,-1.0971 -0.309182,-0.42887 -0.977413,-0.42887 z m 5.465525,4.82723 q -0.99736,0 -1.595776,-0.68818 -0.598416,-0.69815 -0.598416,-2.07451 0,-1.37636 0.598416,-2.07451 0.60839,-0.70813 1.60575,-0.70813 0.618363,0 1.007333,0.2294 0.398944,0.22939 0.648284,0.55852 h 0.05984 q -0.01,-0.12966 -0.03989,-0.379 -0.01995,-0.25931 -0.01995,-0.40892 v -2.13435 h 0.877677 v 7.57994 h -0.708125 l -0.129657,-0.7181 h -0.0399 q -0.239366,0.3391 -0.63831,0.57847 -0.398944,0.23937 -1.027281,0.23937 z m 0.139631,-0.72808 q 0.847756,0 1.186858,-0.45878 0.349076,-0.46876 0.349076,-1.40628 v -0.15958 q 0,-0.99736 -0.329129,-1.52596 -0.329129,-0.53857 -1.216779,-0.53857 -0.708126,0 -1.067175,0.56849 -0.349076,0.55852 -0.349076,1.50602 0,0.95746 0.349076,1.48606 0.359049,0.5286 1.077149,0.5286 z"
         id="text9"
         aria-label="Unverified" />
      <path
         d="m 66.210482,115.87344 -1.266052,-1.31125 3.21035,-3.21035 H 57.167238 v -1.80866 H 68.15478 l -3.21035,-3.21035 1.266052,-1.31129 5.425946,5.42595 z"
         id="path1"
         style="fill:url(#linearGradient2);fill-opacity:1;stroke-width:0.00661457" />
    </g>
  </g>
</svg>
